<svg xmlns="http://www.w3.org/2000/svg" xmlns:xlink="http://www.w3.org/1999/xlink" fill="none" version="1.1" width="48" height="48" viewBox="0 0 48 48"><defs><clipPath id="master_svg0_5_1311"><rect x="6" y="6" width="36" height="36" rx="0"/></clipPath></defs><g><g style="opacity:0.15000000596046448;"><ellipse cx="24" cy="24" rx="24" ry="24" fill="#BEF000" fill-opacity="1"/></g><g clip-path="url(#master_svg0_5_1311)"><g><path d="M38.203826953125,23.883011718749998L32.753426953125,20.11201171875C32.136126953125,19.68511171875,31.768526953125,18.981631718750002,31.770626953125,18.23106171875L31.786826953125,11.60166171875C31.792226953125,9.71165871875,29.626826953125,8.63705871875,28.123826953125,9.78365871875L22.851626953125,13.803061718750001C22.255126953125,14.25807171875,21.472726953124997,14.39004171875,20.760026953125,14.15586171875L14.460026953125,12.09306171875C12.663626953125,11.504461718750001,10.973426953125,13.23066171875,11.598026953125,15.014461718749999L13.792226953124999,21.26941171875C14.040626953124999,21.97681171875,13.923626953125,22.76161171875,13.482626953125,23.36821171875L9.573024953125,28.72141171875C8.458824953125,30.24781171875,9.578425953125,32.38801171875,11.466626953125001,32.34481171875L18.094226953125002,32.19181171875C18.844826953125,32.17381171875,19.555826953125,32.526611718750004,19.995026953125,33.13501171875L23.877626953125002,38.50801171875C24.984626953125,40.03981171875,27.367826953125,39.636611718750004,27.909626953125,37.82761171875L29.734826953125,31.73641171875L35.824226953125,37.42801171875C36.057226953124996,37.64601171875,36.360426953125,37.77371171875,36.679226953124996,37.78801171875C37.059026953125,37.80601171875,37.444226953124996,37.66201171875,37.723226953125,37.36321171875C38.230926953125,36.82141171875,38.201926953124996,35.97021171875,37.658426953125,35.46421171875L31.650026953125,29.84821171875L37.606226953125,27.92941171875C39.404426953125,27.34981171875,39.759026953125,24.959411718749998,38.203826953125,23.883011718749998ZM19.453226953125,23.57161171875L17.392226953125,27.31561171875C17.155906953124997,27.74571171875,16.703936953125,28.01281171875,16.213226953125,28.01221171875C15.993626953125,28.01221171875,15.772226953125,27.95821171875,15.567026953125,27.84481171875C14.917226953124999,27.48661171875,14.679626953125,26.66941171875,15.037826953125,26.01961171875L16.963826953125,22.520411718749997L16.047626953125,19.45681171875C15.835226953125,18.74586171875,16.238426953125,17.99706171875,16.949426953125,17.78466171875C17.660426953125,17.57226171875,18.409226953125,17.975461718749997,18.621626953125002,18.68646171875L19.617026953125,22.01641171875C19.773626953125,22.53121171875,19.714226953125,23.09821171875,19.453226953125,23.57161171875Z" fill="#BEF000" fill-opacity="1"/></g><g style="opacity:0.20000000298023224;"><path d="M37.0834,23.535899999999998L32.0062,20.0328C31.4311,19.63617,31.0887,18.98266,31.0906,18.28541L31.1057,12.12698C31.1108,10.371255,29.0936,9.372997,27.6935,10.438139L22.7822,14.171990000000001C22.2265,14.59468,21.497700000000002,14.71727,20.8338,14.49973L14.96504,12.58347C13.29161,12.03669,11.71711,13.64025,12.298960000000001,15.297329999999999L14.34295,21.108C14.574349999999999,21.7651,14.46536,22.4941,14.054549999999999,23.0577L10.41258,28.0305C9.374653,29.4485,10.41761,31.4367,12.17655,31.3965L18.350459999999998,31.2544C19.04967,31.2377,19.712,31.5654,20.1211,32.1306L23.738,37.1219C24.769199999999998,38.5449,26.9892,38.1703,27.4939,36.4898L29.1942,30.8314L34.8667,36.1186C35.0838,36.3211,35.366299999999995,36.4397,35.6632,36.453C36.016999999999996,36.4698,36.3758,36.336,36.6357,36.0584C37.1087,35.555099999999996,37.0817,34.7643,36.5754,34.2943L30.9783,29.0773L36.5268,27.2948C38.201899999999995,26.7564,38.5322,24.535800000000002,37.0834,23.535899999999998ZM19.61643,23.2466L17.69651,26.7246C17.47637,27.1241,17.05534,27.3722,16.59822,27.3717C16.39365,27.3717,16.18741,27.3216,15.99626,27.2162C15.39094,26.8835,15.169599999999999,26.1243,15.50328,25.520699999999998L17.29744,22.2701L16.44396,19.424129999999998C16.2461,18.763640000000002,16.6217,18.06804,17.284019999999998,17.870730000000002C17.94635,17.67342,18.64389,18.04797,18.841749999999998,18.708460000000002L19.76901,21.8019C19.91489,22.280099999999997,19.859560000000002,22.806800000000003,19.61643,23.2466Z" fill="#F2F4F7" fill-opacity="1"/></g><g style="opacity:0.20000000298023224;"><path d="M36.1489,23.569000000000003L31.4343,20.31616C30.9003,19.947879999999998,30.5824,19.34104,30.5842,18.6936L30.5982,12.97506C30.6028,11.344736,28.7298,10.417783,27.4297,11.406844L22.8692,14.87399C22.3532,15.266490000000001,21.6765,15.380320000000001,21.0599,15.17832L15.610389999999999,13.39894C14.0565,12.891210000000001,12.59446,14.38024,13.13475,15.918949999999999L15.03274,21.314500000000002C15.24761,21.9247,15.1464,22.6017,14.76494,23.125L11.38311,27.7427C10.41932,29.0593,11.387781,30.9055,13.02108,30.8682L18.753999999999998,30.7362C19.40327,30.7207,20.01829,31.025,20.3982,31.5498L23.756700000000002,36.1846C24.714199999999998,37.5059,26.7757,37.158100000000005,27.2444,35.5977L28.8232,30.3434L34.0905,35.253C34.292100000000005,35.441,34.5544,35.5512,34.8301,35.563500000000005C35.158699999999996,35.5791,35.4919,35.4548,35.7332,35.1971C36.172399999999996,34.7297,36.1473,33.995400000000004,35.677099999999996,33.559L30.4798,28.7146L35.632000000000005,27.0595C37.1874,26.5595,37.4942,24.497500000000002,36.1489,23.569000000000003ZM19.92954,23.3004L18.14676,26.53C17.94234,26.901,17.551389999999998,27.1313,17.12692,27.1309C16.93696,27.1309,16.745449999999998,27.0843,16.56795,26.9865C16.00587,26.677500000000002,15.80035,25.9726,16.11019,25.412100000000002L17.77619,22.3936L16.98368,19.75098C16.79995,19.13767,17.14872,18.49175,17.76374,18.30853C18.37876,18.12531,19.02647,18.47312,19.2102,19.08643L20.07123,21.9589C20.206690000000002,22.403,20.1553,22.8921,19.92954,23.3004Z" fill="#F2F4F7" fill-opacity="1"/></g><g style="opacity:0.4000000059604645;"><path d="M35.2144,23.6022L30.8624,20.59953C30.3695,20.25958,30.076,19.69943,30.0777,19.101779999999998L30.0906,13.823129999999999C30.0949,12.318218,28.3659,11.462569,27.1658,12.375548L22.956200000000003,15.575990000000001C22.4799,15.9383,21.85519,16.04338,21.28609,15.85691L16.25575,14.21441C14.82138,13.74573,13.47181,15.12022,13.97053,16.54057L15.722529999999999,21.52111C15.92087,22.084400000000002,15.827449999999999,22.7093,15.47533,23.1923L12.35364,27.4548C11.463988,28.6702,12.357951,30.3743,13.86562,30.3399L19.15753,30.2181C19.75686,30.2037,20.32457,30.4846,20.67526,30.9691L23.775399999999998,35.247299999999996C24.6593,36.467,26.5622,36.146,26.994799999999998,34.705600000000004L28.4522,29.8554L33.3144,34.3874C33.5004,34.561,33.7425,34.6626,33.997,34.674C34.3003,34.6884,34.6079,34.5737,34.830600000000004,34.3358C35.2361,33.904399999999995,35.212900000000005,33.226600000000005,34.7789,32.8237L29.9814,28.352L34.7372,26.8241C36.173,26.3626,36.456199999999995,24.4593,35.2144,23.6022ZM20.242649999999998,23.3542L18.59701,26.3354C18.40832,26.677799999999998,18.04744,26.8905,17.65562,26.8901C17.48027,26.8901,17.30349,26.847099999999998,17.13965,26.7568C16.6208,26.4715,16.43109,25.8209,16.717100000000002,25.3034L18.25495,22.517200000000003L17.52339,20.07782C17.3538,19.51169,17.67574,18.91546,18.24345,18.74634C18.81116,18.57721,19.40905,18.89826,19.57865,19.46439L20.373440000000002,22.1159C20.49848,22.5258,20.451050000000002,22.9773,20.242649999999998,23.3542Z" fill="#F2F4F7" fill-opacity="1"/></g></g></g></svg>