<svg xmlns="http://www.w3.org/2000/svg" xmlns:xlink="http://www.w3.org/1999/xlink" fill="none" version="1.1" width="48" height="48" viewBox="0 0 48 48"><defs><clipPath id="master_svg0_5_1323"><rect x="9" y="8" width="31" height="31" rx="0"/></clipPath></defs><g><g style="opacity:0.11999999731779099;"><ellipse cx="24" cy="24" rx="24" ry="24" fill="#654AF8" fill-opacity="1"/></g><g clip-path="url(#master_svg0_5_1323)"><g><path d="M34.693147265625,29.6305C35.354747265625,29.4469,36.062547265625,29.5385,36.655647265625,29.8845C37.614747265625,30.5204,38.474147265625,31.2202,38.399847265625,33.9513C38.345047265625,35.721900000000005,36.615547265625,37.5162,34.728247265625,38.2765C32.194847265625,39.2412,29.395247265625,39.2412,26.861747265625,38.2765C24.669547265625,37.4728,23.877247265625,35.2997,23.245847265625002,34.0329C22.758547265624998,33.0753,22.552747265625,31.9991,22.652247265625,30.9293C22.689247265625,30.6426,22.991947265625,29.4423,24.570147265625,26.8753C25.044247265625,26.0748,25.912647265625,24.8476,24.478947265625,23.4558C23.985947265625,22.8914,23.279647265625,22.5584,22.530547265625,22.5372C22.058847265624998,22.5208,21.589947265625,22.457,21.131047265625,22.3467C20.400307265625003,22.1361,19.598427265625,21.8612,19.271577265624998,21.1436C19.092757265625,20.8031,19.013597265625002,20.419,19.043187265625,20.0354C19.073727265625,19.653,19.144847265625,19.275,19.256077265625002,18.909399999999998C19.368217265625,18.5397,19.484467265625,18.186,19.605267265625002,17.84863C19.582937265625,17.911540000000002,20.398937265625,16.19155,18.753707265625,15.53693C18.103487265625,15.33553,17.425287265625002,15.2392,16.744697265625,15.25155C16.412657265625,15.25812,16.087937265625,15.350290000000001,15.801967265624999,15.51915C15.476477265625,15.763490000000001,15.450947265625,15.89478,15.633747265625,17.08642C15.706137265625,17.53209,15.669537265625,17.98866,15.527077265625,18.417099999999998C15.424637265625,18.6726,15.286497265625,18.912399999999998,15.116797265625,19.1292C15.384387265625,18.7845,14.000377265625,20.5456,14.126647265625,20.8555C14.257937265625,21.1769,15.042487265624999,20.9923,15.314637265624999,21.514699999999998C15.491057265624999,22.0458,15.582237265625,22.604300000000002,15.586337265625,23.166800000000002C15.689647265625,24.03,15.904487265625,24.8762,16.225467265625,25.6841C16.387297265625,26.1094,16.249627265625,26.3118,16.888757265625,26.382C17.902557265625,26.3755,18.913587265625,26.2751,19.908877265625,26.0821C20.250397265625,26.0763,20.586987265624998,26.1641,20.882147265625,26.336C21.410847265625,26.7236,21.787647265625,27.2835,21.947547265624998,27.9192C22.102047265625,29.1938,21.245047265625,29.6962,21.084147265625,31.2466C20.890847265625,33.115700000000004,20.471877265625,34.8758,19.510907265625,35.5728C19.022217265625002,35.926500000000004,16.301597265625,36.7786,13.881847265625,35.9311C12.741717265625,35.5327,11.922527265625,34.4345,11.643537265625,32.869C11.321236265625,31.0606,13.159757265625,28.8209,13.029377265625,28.1412C12.991487265625,27.916,12.908707265625,27.7006,12.785937265625,27.508L12.208357265625,26.8434C12.034667265625,26.6173,11.862347265625,26.3902,11.691857265625,26.1618C11.505744265625,25.9132,11.352237265625,25.6417,11.235077265625,25.354C10.858960265625,24.6045,10.641390065625,23.7854,10.595947265625,22.948C10.595947265625,22.6312,10.600505875625,22.2464,10.611902565625,21.7924C10.618385265625,21.3553,10.695194365625,20.9222,10.839380265625,20.5095C11.062437265625,20.0146,11.365549265625,19.5597,11.736527265625,19.1634C12.311077265625,18.4718,12.844747265625,17.747239999999998,13.334807265624999,16.99343C13.656327265625,16.31219,13.871847265625,15.58581,13.973927265625,14.83945C13.989887265625,14.72549,14.000367265625,14.60878,14.004477265624999,14.492989999999999C14.004477265624999,14.281469999999999,13.993987265625,14.049430000000001,13.974837265625,13.79552L13.913297265625,13.00367C13.913297265625,12.8774,13.903727265625001,12.66587,13.882757265625,12.37138C13.865147265625,12.04215,13.890747265625,11.71203,13.958887265625,11.38944C14.037427265625,11.00998,14.165397265625,10.64245,14.339537265625001,10.29627C14.542847265625,9.90281,14.834467265625001,9.56174,15.191557265625,9.29975C15.512297265625001,9.059989999999999,15.880957265625,8.892222,16.272417265625002,8.807864C16.657657265624998,8.717774,17.049657265625,8.659531,17.444457265625,8.633722C17.890747265625002,8.613208,18.337957265625,8.624149,18.782877265625,8.666089C19.178027265624998,8.515321,19.585397265624998,8.398798,20.000507265625,8.317805C20.422977265625,8.223577,20.849747265625,8.149491,21.279247265625,8.0957969C21.784047265625,8.0315515,22.292447265625,7.999575841,22.801347265624997,8.0000645955C24.322347265624998,7.9950674,25.830447265625,8.280057,27.244747265625,8.839774C28.336347265625,9.28834,29.337147265625,9.93223,30.197847265625,10.73983C30.931047265625,11.437190000000001,31.529247265625,12.26384,31.962447265625,13.178270000000001C32.334847265625,13.960609999999999,32.630447265625,14.77725,32.845047265625,15.616710000000001C33.007047265625005,16.23932,33.113947265625,16.87496,33.164647265625,17.51631C33.195147265624996,18.0337,33.210147265625,18.3022,33.210147265625,18.3241C33.250347265624995,19.042099999999998,33.762747265624995,19.5964,34.351647265625004,20.2091C34.963247265625,20.8341,35.537247265625,21.494799999999998,36.070747265625,22.1876C36.452347265625,22.8487,36.691147265625,23.5825,36.771847265625,24.3416C36.821447265625,24.9123,36.737847265625,25.4867,36.527547265625,26.0196C36.108647265624995,26.913,35.422947265625,27.6544,34.565047265625,28.1417C34.645247265625,28.0934,32.329947265625,28.9673,31.400847265625,29.9788C30.911347265625,30.5364,30.657247265625,31.2622,30.691947265625,32.003299999999996C30.722247265625,32.743300000000005,31.039847265625,33.4422,31.577247265625,33.9517C32.102847265625,34.434,33.961447265625,34.871700000000004,34.724147265625,33.9517C35.137647265625,33.4535,35.299847265625004,32.2928,34.724147265625,31.7886Q33.811047265625,30.9899,31.952447265625,32.332Q32.020347265625,30.2346,34.693547265625,29.6319L34.693547265625,29.6305L34.693147265625,29.6305Z" fill="#654AF8" fill-opacity="1"/></g><g style="opacity:0.20000000298023224;"><path d="M34.396699999999996,29.235C35.039100000000005,29.0632,35.726299999999995,29.1489,36.3022,29.4726C37.2335,30.0675,38.0678,30.7221,37.995599999999996,33.277C37.942499999999995,34.9333,36.2632,36.6119,34.430800000000005,37.3232C31.971,38.2256,29.2528,38.2256,26.793,37.3232C24.6645,36.5714,23.895200000000003,34.538399999999996,23.2822,33.353300000000004C22.8091,32.457499999999996,22.609299999999998,31.4508,22.7059,30.45C22.7417,30.1817,23.035600000000002,29.0589,24.567999999999998,26.6575C25.0283,25.9087,25.871499999999997,24.7606,24.4795,23.4587C24.000799999999998,22.9306,23.3151,22.6192,22.587699999999998,22.5993C22.1297,22.584,21.674500000000002,22.5243,21.2289,22.4211C20.51936,22.2241,19.7408,21.966900000000003,19.42344,21.2957C19.24982,20.9771,19.17296,20.6177,19.20169,20.259C19.23135,19.9012,19.3004,19.5476,19.40839,19.2056C19.51728,18.85975,19.63015,18.52881,19.747439999999997,18.21323C19.725749999999998,18.27209,20.51803,16.66306,18.92063,16.05067C18.28931,15.862269999999999,17.63082,15.77215,16.970019999999998,15.78371C16.64763,15.789850000000001,16.332349999999998,15.87608,16.05469,16.03404C15.73866,16.26262,15.71387,16.38544,15.891359999999999,17.5002C15.961649999999999,17.91711,15.926120000000001,18.34423,15.787790000000001,18.74503C15.68833,18.98408,15.554210000000001,19.208399999999997,15.38943,19.4112C15.64925,19.0888,14.30547,20.7362,14.42807,21.0261C14.55554,21.3268,15.31729,21.1541,15.58153,21.6428C15.75282,22.1396,15.84135,22.662,15.84533,23.188299999999998C15.945640000000001,23.9958,16.15423,24.787399999999998,16.46588,25.5432C16.62301,25.9411,16.48934,26.1304,17.10989,26.1961C18.09423,26.19,19.07586,26.096,20.04222,25.9155C20.373820000000002,25.9101,20.70062,25.9922,20.987209999999997,26.153C21.500500000000002,26.5156,21.866300000000003,27.0394,22.0216,27.6341C22.1717,28.8265,21.3395,29.2964,21.1833,30.7468C20.995620000000002,32.4953,20.58885,34.1418,19.65582,34.7939C19.181330000000003,35.1248,16.53979,35.9219,14.19039,35.1291C13.083400000000001,34.7564,12.28802,33.729,12.01714,32.2646C11.704206,30.5728,13.48928,28.4776,13.36269,27.8418C13.32591,27.6311,13.24553,27.4296,13.12633,27.2494L12.56554,26.6277C12.3969,26.4161,12.22959,26.2038,12.06405,25.9901C11.883351,25.7575,11.734306,25.5035,11.620552,25.2344C11.255368,24.5332,11.0441219,23.767,11,22.9836C11,22.6872,11.0044261,22.3273,11.0154916,21.9025C11.0217857,21.4937,11.0963621,21.0885,11.236357,20.7025C11.45293,20.2394,11.747231,19.814,12.10743,19.4431C12.66528,18.79618,13.18343,18.118380000000002,13.65924,17.41321C13.97142,16.77591,14.18068,16.0964,14.27979,15.3982C14.29528,15.29158,14.30546,15.18241,14.30945,15.07409C14.30945,14.87621,14.29927,14.65915,14.28068,14.421610000000001L14.22092,13.68085C14.22092,13.56273,14.21163,13.36485,14.19127,13.08936C14.17417,12.781369999999999,14.19902,12.47254,14.26518,12.170770000000001C14.34144,11.81578,14.46569,11.471969999999999,14.63477,11.14813C14.83217,10.78005,15.115310000000001,10.46098,15.462019999999999,10.21589C15.77344,9.991607,16.13139,9.834659,16.51146,9.755743C16.88551,9.671466,17.26612,9.61698,17.64943,9.592837C18.08275,9.573646,18.51696,9.583881,18.94896,9.623115C19.332610000000003,9.482075,19.72815,9.373069,20.13118,9.297301C20.54138,9.209153,20.9557,9.139846,21.372700000000002,9.0896164C21.8629,9.029516,22.3565,8.999603206,22.8506,9.000060428C24.3274,8.99538563,25.791600000000003,9.261988,27.1648,9.785594C28.2248,10.20522,29.1964,10.80757,30.0321,11.56307C30.744,12.215440000000001,31.3248,12.98876,31.7454,13.844190000000001C32.107,14.57605,32.394,15.34001,32.6024,16.1253C32.7596,16.70774,32.8635,17.30238,32.9126,17.90235C32.9423,18.386380000000003,32.956900000000005,18.63756,32.956900000000005,18.65803C32.9958,19.329700000000003,33.493300000000005,19.848300000000002,34.065200000000004,20.4214C34.659,21.0061,35.216300000000004,21.6241,35.734300000000005,22.2723C36.1048,22.8908,36.3367,23.577199999999998,36.415099999999995,24.287300000000002C36.4632,24.821199999999997,36.382000000000005,25.3585,36.177800000000005,25.8571C35.771100000000004,26.6928,35.1054,27.3864,34.272400000000005,27.8422C34.350300000000004,27.797,32.102199999999996,28.6145,31.2001,29.5608C30.7249,30.0825,30.4782,30.7614,30.5119,31.4547C30.5413,32.1469,30.8496,32.800799999999995,31.3714,33.2774C31.8818,33.7286,33.6863,34.138000000000005,34.4268,33.2774C34.8283,32.8113,34.9858,31.7255,34.4268,31.2539Q33.5403,30.5067,31.7357,31.7622Q31.8017,29.8001,34.3972,29.2363L34.3972,29.235L34.396699999999996,29.235Z" fill="#FFFFFF" fill-opacity="1"/></g><g style="opacity:0.20000000298023224;"><path d="M33.6636,28.8395C34.2584,28.6795,34.8947,28.7593,35.428,29.0607C36.2902,29.6145,37.062799999999996,30.224,36.995999999999995,32.6027C36.946799999999996,34.144800000000004,35.3919,35.7076,33.6952,36.3699C31.4176,37.21,28.9007,37.21,26.6232,36.3699C24.6523,35.6699,23.939999999999998,33.7772,23.3724,32.6738C22.9343,31.8397,22.749299999999998,30.9025,22.8388,29.9707C22.872,29.7209,23.1441,28.6755,24.5629,26.4398C24.9892,25.7425,25.7699,24.6737,24.481,23.4615C24.0378,22.969900000000003,23.4028,22.6799,22.7294,22.6615C22.305300000000003,22.647199999999998,21.88377,22.5916,21.47118,22.4955C20.81422,22.3121,20.09333,22.0726,19.79948,21.447699999999998C19.63872,21.1511,19.56756,20.816499999999998,19.59416,20.4825C19.62162,20.1493,19.68555,19.8202,19.78555,19.50177C19.88637,19.17976,19.99088,18.871650000000002,20.09948,18.577840000000002C20.0794,18.63263,20.81299,17.13458,19.33392,16.56442C18.74936,16.38901,18.13965,16.3051,17.52779,16.31587C17.22929,16.32159,16.937359999999998,16.40187,16.68027,16.54893C16.38765,16.76175,16.3647,16.8761,16.529040000000002,17.91398C16.59412,18.30214,16.56122,18.6998,16.43314,19.072960000000002C16.34104,19.29553,16.21686,19.50433,16.06429,19.69314C16.304859999999998,19.39298,15.06062,20.9268,15.17414,21.1968C15.29217,21.4767,15.997489999999999,21.3159,16.24216,21.770899999999997C16.40076,22.2334,16.48273,22.7198,16.48642,23.2098C16.5793,23.9616,16.77243,24.6986,17.061,25.4023C17.20649,25.7727,17.082720000000002,25.948999999999998,17.6573,26.0101C18.568730000000002,26.0045,19.47765,25.917,20.37243,25.7489C20.67946,25.7438,20.98206,25.8203,21.247419999999998,25.97C21.72268,26.3076,22.0614,26.7953,22.205199999999998,27.349C22.344099999999997,28.4591,21.573639999999997,28.8967,21.42897,30.247C21.255200000000002,31.8749,20.87857,33.4079,20.01465,34.015C19.57531,34.3231,17.12944,35.065200000000004,14.95406,34.3271C13.92907,33.9801,13.19261,33.0236,12.941793,31.6601C12.652043,30.085,14.30489,28.1343,14.18768,27.5423C14.15362,27.3462,14.07919,27.1586,13.96883,26.9909L13.44957,26.412C13.29343,26.215,13.13851,26.0173,12.985235,25.8184C12.817918,25.6018,12.679912999999999,25.3654,12.574585,25.114800000000002C12.236452,24.4619,12.0408536,23.7486,12,23.019199999999998C12,22.743299999999998,12.00409824,22.408099999999997,12.014344,22.012700000000002C12.020172,21.631999999999998,12.0892242,21.2548,12.218849,20.895400000000002C12.419379,20.4643,12.69188,20.068199999999997,13.0254,19.722920000000002C13.54192,19.12058,14.0217,18.489530000000002,14.46226,17.83299C14.75131,17.23964,14.94507,16.60699,15.03684,15.95694C15.05119,15.85768,15.06061,15.756029999999999,15.0643,15.655190000000001C15.0643,15.47096,15.05488,15.26886,15.037659999999999,15.04771L14.98234,14.358039999999999C14.98234,14.24805,14.97373,14.06382,14.95488,13.80733C14.93905,13.520579999999999,14.962060000000001,13.23306,15.02332,12.9521C15.09392,12.62159,15.20897,12.30149,15.36553,11.99998C15.54831,11.65728,15.81047,11.36022,16.1315,11.13204C16.41985,10.923221,16.75128,10.777096,17.10321,10.703623C17.44954,10.625158,17.80196,10.57443,18.15688,10.551951C18.55811,10.534084,18.96015,10.543613,19.36014,10.580142C19.71538,10.448828,20.08162,10.347339999999999,20.4548,10.276798C20.834609999999998,10.194728,21.21824,10.130202,21.60437,10.083436C22.0582,10.0274804,22.5153,9.999630571,22.9728,10.0000562606C24.3402,9.99570386,25.6959,10.24392,26.967399999999998,10.731415C27.948900000000002,11.1221,28.8485,11.68291,29.6223,12.3863C30.2814,12.99368,30.8193,13.71367,31.2087,14.510100000000001C31.5435,15.1915,31.8093,15.90277,32.0022,16.6339C32.147800000000004,17.17618,32.244,17.72981,32.289500000000004,18.2884C32.316900000000004,18.73904,32.3305,18.9729,32.3305,18.99196C32.3665,19.61731,32.827200000000005,20.100099999999998,33.356700000000004,20.633699999999997C33.9065,21.1781,34.4225,21.753500000000003,34.902100000000004,22.3569C35.2452,22.9328,35.459900000000005,23.5718,35.5325,24.233C35.577,24.7301,35.5018,25.2304,35.312799999999996,25.694499999999998C34.9362,26.4726,34.3198,27.1183,33.548500000000004,27.5427C33.620599999999996,27.5007,31.5391,28.2618,30.7038,29.1428C30.2638,29.6285,30.0353,30.2606,30.0666,30.9061C30.0938,31.5506,30.3793,32.159400000000005,30.8624,32.6031C31.335,33.0232,33.0059,33.4043,33.691500000000005,32.6031C34.063199999999995,32.1691,34.2091,31.1583,33.691500000000005,30.7191Q32.870599999999996,30.0235,31.1997,31.1924Q31.2608,29.3656,33.664,28.8407L33.664,28.8395L33.6636,28.8395Z" fill="#FFFFFF" fill-opacity="1"/></g><g style="opacity:0.4000000059604645;"><path d="M32.930499999999995,28.444C33.4778,28.2959,34.063199999999995,28.3697,34.5537,28.6488C35.347,29.1616,36.0577,29.7259,35.996300000000005,31.9284C35.951,33.356300000000005,34.5205,34.8033,32.959599999999995,35.4166C30.8642,36.194500000000005,28.5487,36.194500000000005,26.4533,35.4166C24.6401,34.7684,23.9848,33.0159,23.462600000000002,31.9942C23.0596,31.222,22.88937,30.3541,22.97168,29.4914C23.002200000000002,29.2601,23.2526,28.2921,24.5579,26.222C24.95,25.5764,25.668300000000002,24.5868,24.4825,23.464399999999998C24.0747,23.0092,23.4906,22.7407,22.87101,22.723599999999998C22.48086,22.7103,22.09306,22.6589,21.71349,22.5699C21.109090000000002,22.400100000000002,20.44587,22.1784,20.175530000000002,21.5997C20.027630000000002,21.3251,19.96215,21.0153,19.986629999999998,20.70599C20.01189,20.397550000000003,20.07071,20.092779999999998,20.16271,19.79793C20.25546,19.49978,20.35161,19.214489999999998,20.451520000000002,18.94244C20.43305,18.99318,21.10796,17.606090000000002,19.7472,17.07816C19.20941,16.91575,18.64848,16.83806,18.08557,16.84803C17.810940000000002,16.85332,17.54237,16.92765,17.30584,17.06383C17.03663,17.26088,17.015520000000002,17.36676,17.166719999999998,18.327759999999998C17.22659,18.687170000000002,17.19632,19.05537,17.078490000000002,19.40089C16.99376,19.60697,16.87951,19.80031,16.73915,19.97513C16.96047,19.697200000000002,15.81577,21.1174,15.92021,21.3674C16.0288,21.6266,16.67769,21.4777,16.90278,21.899C17.0487,22.3273,17.12411,22.7776,17.1275,23.231299999999997C17.21295,23.9274,17.39064,24.6098,17.65612,25.261400000000002C17.78997,25.6044,17.676099999999998,25.7676,18.204720000000002,25.824199999999998C19.04323,25.8189,19.87944,25.738,20.70263,25.5823C20.9851,25.5776,21.263489999999997,25.6485,21.50762,25.787100000000002C21.94487,26.099600000000002,22.25651,26.5512,22.38877,27.0639C22.51659,28.0918,21.80775,28.4969,21.67465,29.7472C21.514789999999998,31.2546,21.16828,32.674,20.37348,33.2361C19.96928,33.5214,17.719079999999998,34.2085,15.71774,33.525099999999995C14.774750000000001,33.2038,14.0972,32.3181,13.866449,31.0557C13.599879,29.5973,15.1205,27.7911,15.01266,27.2429C14.98133,27.0613,14.91286,26.8876,14.81132,26.732300000000002L14.33361,26.1963C14.18995,26.0139,14.04743,25.8308,13.906416,25.6466C13.752484,25.4461,13.62552,25.2272,13.528618,24.9952C13.217535,24.390700000000002,13.0375853,23.7302,13,23.0548C13,22.799300000000002,13.00377038,22.489,13.0131965,22.1229C13.0185582,21.770400000000002,13.0820863,21.4211,13.201341,21.0883C13.385829,20.68917,13.63653,20.32237,13.943364,20.00271C14.41857,19.44499,14.859960000000001,18.86067,15.26528,18.252760000000002C15.53121,17.70337,15.70947,17.11759,15.7939,16.51569C15.80709,16.42378,15.815760000000001,16.32966,15.81916,16.23628C15.81916,16.0657,15.81049,15.87857,15.79465,15.6738L15.74375,15.035219999999999C15.74375,14.93338,15.73583,14.7628,15.71849,14.525310000000001C15.70392,14.2598,15.72509,13.99357,15.78145,13.73342C15.84641,13.4274,15.952259999999999,13.13101,16.09628,12.85183C16.26444,12.53452,16.50564,12.25946,16.80098,12.04818C17.06626,11.854834,17.37118,11.719533,17.69495,11.651503C18.01358,11.57885,18.3378,11.531879,18.66433,11.511066C19.033459999999998,11.494522,19.40334,11.503346,19.77133,11.537168C20.09815,11.415582,20.43509,11.321611,20.77842,11.256294C21.12784,11.180304,21.48078,11.120557,21.83603,11.0772555C22.25356,11.0254448,22.67407,10.999657936,23.095,11.0000520931C24.353,10.9960221,25.6003,11.225852,26.77,11.677236C27.6729,12.03898,28.5006,12.55825,29.2125,13.20954C29.8189,13.77193,30.3137,14.43858,30.672,15.176020000000001C30.9801,15.80694,31.2245,16.465519999999998,31.402,17.1425C31.536,17.64461,31.6244,18.15723,31.6663,18.67444C31.6916,19.09171,31.704,19.308239999999998,31.704,19.32589C31.7372,19.90492,32.161,20.35196,32.6481,20.84606C33.1539,21.350099999999998,33.628699999999995,21.8829,34.07,22.4416C34.3856,22.974800000000002,34.5831,23.566499999999998,34.6499,24.1787C34.6909,24.6389,34.621700000000004,25.1022,34.4478,25.5319C34.101299999999995,26.2524,33.5342,26.8503,32.824600000000004,27.2433C32.891,27.2043,30.9759,27.9091,30.2075,28.7249C29.8027,29.1745,29.5925,29.7598,29.6212,30.3575C29.6463,30.9542,29.909,31.5179,30.3534,31.9288C30.7882,32.3178,32.3254,32.6707,32.956199999999995,31.9288C33.2982,31.527,33.4324,30.591,32.956199999999995,30.1844Q32.201,29.5403,30.6638,30.6226Q30.7199,28.9311,32.9309,28.4451L32.9309,28.444L32.930499999999995,28.444Z" fill="#FFFFFF" fill-opacity="1"/></g></g></g></svg>