<svg xmlns="http://www.w3.org/2000/svg" xmlns:xlink="http://www.w3.org/1999/xlink" fill="none" version="1.1" width="16" height="16" viewBox="0 0 16 16"><g><g><g><g><path d="M7.6667040234375,1.8333282470703125C4.4450440234375,1.8333282470703125,1.8333740234375,4.444998247070313,1.8333740234375,7.666658247070313C1.8333740234375,10.888328247070312,4.4450440234375,13.500028247070313,7.6667040234375,13.500028247070313C10.8883740234375,13.500028247070313,13.5000740234375,10.888328247070312,13.5000740234375,7.666658247070313C13.5000740234375,4.444998247070313,10.8883740234375,1.8333282470703125,7.6667040234375,1.8333282470703125ZM0.8333740234375,7.666658247070313C0.8333740234375,3.8927182470703126,3.8927640234375,0.8333282470703125,7.6667040234375,0.8333282470703125C11.4406740234375,0.8333282470703125,14.5000740234375,3.8927182470703126,14.5000740234375,7.666658247070313C14.5000740234375,11.440628247070313,11.4406740234375,14.500028247070313,7.6667040234375,14.500028247070313C3.8927640234375,14.500028247070313,0.8333740234375,11.440628247070313,0.8333740234375,7.666658247070313ZM12.9797740234375,12.979728247070312C13.1750740234375,12.784528247070313,13.4916740234375,12.784528247070313,13.6869740234375,12.979728247070312L15.0202740234375,14.313128247070312C15.2154740234375,14.508328247070313,15.2154740234375,14.824928247070313,15.0202740234375,15.020228247070312C14.8249740234375,15.215428247070312,14.5083740234375,15.215428247070312,14.3131740234375,15.020228247070312L12.9797740234375,13.686928247070313C12.7845740234375,13.491628247070313,12.7845740234375,13.175028247070312,12.9797740234375,12.979728247070312Z" fill-rule="evenodd" fill="#1D2129" fill-opacity="1"/><path d="M7.6667040234375,2.3333282470703125Q5.4575740234375,2.3333282470703125,3.8954740234375,3.8954282470703125Q2.3333740234375,5.457518247070312,2.3333740234375,7.666658247070313Q2.3333740234375,9.875808247070312,3.8954740234375,11.437928247070312Q5.4575640234375,13.000028247070313,7.6667040234375,13.000028247070313Q9.8758540234375,13.000028247070313,11.4379740234375,11.437928247070312Q13.0000740234375,9.875808247070312,13.0000740234375,7.666658247070313Q13.0000740234375,5.457528247070313,11.4379740234375,3.8954282470703125Q9.8758440234375,2.3333282470703125,7.6667040234375,2.3333282470703125L7.6667040234375,2.3333282470703125ZM7.6667040234375,1.3333292470703126Q10.2900640234375,1.3333292470703126,12.1450740234375,3.1883182470703124Q14.0000740234375,5.043308247070312,14.0000740234375,7.666658247070313Q14.0000740234375,10.290018247070313,12.1450740234375,12.145028247070313Q10.2900640234375,14.000028247070313,7.6667040234375,14.000028247070313Q5.0433540234375,14.000028247070313,3.1883640234375,12.145028247070313Q1.3333740234375,10.290018247070313,1.3333750234375001,7.666658247070313Q1.3333750234375001,5.043308247070312,3.1883640234375,3.1883182470703124Q5.0433540234375,1.3333282470703125,7.6667040234375,1.3333282470703125L7.6667040234375,1.3333292470703126ZM0.3333740234375,7.666658247070313Q0.3333740234375,4.629098247070313,2.4812540234375,2.4812082470703123Q4.6291440234375,0.33332724707031247,7.6667040234375,0.33332724707031247Q10.7042640234375,0.3333282470703125,12.8521740234375,2.4812082470703123Q15.0000740234375,4.629098247070313,15.0000740234375,7.666658247070313Q15.0000740234375,10.704218247070312,12.8521740234375,12.852128247070313Q10.7042640234375,15.000028247070313,7.6667040234375,15.000028247070313Q4.6291440234375,15.000028247070313,2.4812540234375,12.852128247070313Q0.33337302343749997,10.704218247070312,0.33337302343749997,7.666658247070313L0.3333740234375,7.666658247070313ZM1.3333730234375,7.666658247070313Q1.3333730234375,10.290008247070313,3.1883640234375,12.145028247070313Q5.0433540234375,14.000028247070313,7.6667040234375,14.000028247070313Q10.2900540234375,14.000028247070313,12.1450740234375,12.145028247070313Q14.0000740234375,10.290008247070313,14.0000740234375,7.666658247070313Q14.0000740234375,5.043318247070313,12.1450740234375,3.1883182470703124Q10.2900540234375,1.3333282470703125,7.6667040234375,1.3333272470703126Q5.0433540234375,1.3333272470703126,3.1883640234375,3.1883182470703124Q1.3333740234375,5.043308247070312,1.3333740234375,7.666658247070313L1.3333730234375,7.666658247070313ZM12.6262740234375,12.626228247070312Q12.9191740234375,12.333328247070312,13.3333740234375,12.333328247070312Q13.7475740234375,12.333328247070312,14.0404740234375,12.626228247070312L15.3737740234375,13.959528247070313Q15.6666740234375,14.252428247070313,15.6666740234375,14.666628247070312Q15.6666740234375,15.080828247070313,15.3737740234375,15.373728247070312Q15.0808740234375,15.666628247070312,14.6666740234375,15.666628247070312Q14.2524740234375,15.666628247070312,13.9595740234375,15.373728247070312L12.6262740234375,14.040428247070313Q12.3333740234375,13.747528247070312,12.3333740234375,13.333328247070312Q12.3333740234375,12.919128247070313,12.6262740234375,12.626228247070312ZM13.3333740234375,13.333328247070312L13.3333740234375,13.333328247070312L14.6666740234375,14.666628247070312Q14.6666740234375,14.666628247070312,14.6666740234375,14.666628247070312L14.6666740234375,14.666628247070312L13.3333740234375,13.333328247070312L13.3333740234375,13.333328247070312Z" fill="#1D2129" fill-opacity="1"/></g><g style="opacity:0;"></g></g></g></g></svg>